<svg xmlns="http://www.w3.org/2000/svg" version="1.1" xmlns:xlink="http://www.w3.org/1999/xlink" xmlns:svgjs="http://svgjs.dev/svgjs" viewBox="0 0 800 800" opacity="1"><g stroke-width="35" stroke="hsl(176, 74%, 40%)" fill="none"><polygon points="-17.5,17.5 17.5,-17.5 817.5,782.5 782.5,817.5" stroke="none" fill="hsl(176, 74%, 40%)" clip-path="url(&quot;#SvgjsClipPath2156&quot;)" opacity="0.26" transform="translate(0 -657)"></polygon><polygon points="-17.5,17.5 17.5,-17.5 817.5,782.5 782.5,817.5" stroke="none" fill="hsl(176, 74%, 40%)" clip-path="url(&quot;#SvgjsClipPath2157&quot;)" transform="translate(0 -694)"></polygon><polygon points="-17.5,17.5 17.5,-17.5 817.5,782.5 782.5,817.5" stroke="none" fill="hsl(176, 74%, 40%)" clip-path="url(&quot;#SvgjsClipPath2156&quot;)" opacity="0.26" transform="translate(0 -537)"></polygon><polygon points="-17.5,17.5 17.5,-17.5 817.5,782.5 782.5,817.5" stroke="none" fill="hsl(176, 74%, 40%)" clip-path="url(&quot;#SvgjsClipPath2157&quot;)" transform="translate(0 -574)"></polygon><polygon points="-17.5,17.5 17.5,-17.5 817.5,782.5 782.5,817.5" stroke="none" fill="hsl(176, 74%, 40%)" clip-path="url(&quot;#SvgjsClipPath2156&quot;)" opacity="0.26" transform="translate(0 -417)"></polygon><polygon points="-17.5,17.5 17.5,-17.5 817.5,782.5 782.5,817.5" stroke="none" fill="hsl(176, 74%, 40%)" clip-path="url(&quot;#SvgjsClipPath2157&quot;)" transform="translate(0 -454)"></polygon><polygon points="-17.5,17.5 17.5,-17.5 817.5,782.5 782.5,817.5" stroke="none" fill="hsl(176, 74%, 40%)" clip-path="url(&quot;#SvgjsClipPath2156&quot;)" opacity="0.26" transform="translate(0 -297)"></polygon><polygon points="-17.5,17.5 17.5,-17.5 817.5,782.5 782.5,817.5" stroke="none" fill="hsl(176, 74%, 40%)" clip-path="url(&quot;#SvgjsClipPath2157&quot;)" transform="translate(0 -334)"></polygon><polygon points="-17.5,17.5 17.5,-17.5 817.5,782.5 782.5,817.5" stroke="none" fill="hsl(176, 74%, 40%)" clip-path="url(&quot;#SvgjsClipPath2156&quot;)" opacity="0.26" transform="translate(0 -177)"></polygon><polygon points="-17.5,17.5 17.5,-17.5 817.5,782.5 782.5,817.5" stroke="none" fill="hsl(176, 74%, 40%)" clip-path="url(&quot;#SvgjsClipPath2157&quot;)" transform="translate(0 -214)"></polygon><polygon points="-17.5,17.5 17.5,-17.5 817.5,782.5 782.5,817.5" stroke="none" fill="hsl(176, 74%, 40%)" clip-path="url(&quot;#SvgjsClipPath2156&quot;)" opacity="0.26" transform="translate(0 -57)"></polygon><polygon points="-17.5,17.5 17.5,-17.5 817.5,782.5 782.5,817.5" stroke="none" fill="hsl(176, 74%, 40%)" clip-path="url(&quot;#SvgjsClipPath2157&quot;)" transform="translate(0 -94)"></polygon><polygon points="-17.5,17.5 17.5,-17.5 817.5,782.5 782.5,817.5" stroke="none" fill="hsl(176, 74%, 40%)" clip-path="url(&quot;#SvgjsClipPath2156&quot;)" opacity="0.26" transform="translate(0 63)"></polygon><polygon points="-17.5,17.5 17.5,-17.5 817.5,782.5 782.5,817.5" stroke="none" fill="hsl(176, 74%, 40%)" clip-path="url(&quot;#SvgjsClipPath2157&quot;)" transform="translate(0 26)"></polygon><polygon points="-17.5,17.5 17.5,-17.5 817.5,782.5 782.5,817.5" stroke="none" fill="hsl(176, 74%, 40%)" clip-path="url(&quot;#SvgjsClipPath2156&quot;)" opacity="0.26" transform="translate(0 183)"></polygon><polygon points="-17.5,17.5 17.5,-17.5 817.5,782.5 782.5,817.5" stroke="none" fill="hsl(176, 74%, 40%)" clip-path="url(&quot;#SvgjsClipPath2157&quot;)" transform="translate(0 146)"></polygon><polygon points="-17.5,17.5 17.5,-17.5 817.5,782.5 782.5,817.5" stroke="none" fill="hsl(176, 74%, 40%)" clip-path="url(&quot;#SvgjsClipPath2156&quot;)" opacity="0.26" transform="translate(0 303)"></polygon><polygon points="-17.5,17.5 17.5,-17.5 817.5,782.5 782.5,817.5" stroke="none" fill="hsl(176, 74%, 40%)" clip-path="url(&quot;#SvgjsClipPath2157&quot;)" transform="translate(0 266)"></polygon><polygon points="-17.5,17.5 17.5,-17.5 817.5,782.5 782.5,817.5" stroke="none" fill="hsl(176, 74%, 40%)" clip-path="url(&quot;#SvgjsClipPath2156&quot;)" opacity="0.26" transform="translate(0 423)"></polygon><polygon points="-17.5,17.5 17.5,-17.5 817.5,782.5 782.5,817.5" stroke="none" fill="hsl(176, 74%, 40%)" clip-path="url(&quot;#SvgjsClipPath2157&quot;)" transform="translate(0 386)"></polygon></g><defs><clipPath id="SvgjsClipPath2156"><rect width="47.05882352941177" height="800" x="0" y="0"></rect><rect width="47.05882352941177" height="800" x="94.11764705882354" y="0"></rect><rect width="47.05882352941177" height="800" x="188.23529411764707" y="0"></rect><rect width="47.05882352941177" height="800" x="282.3529411764706" y="0"></rect><rect width="47.05882352941177" height="800" x="376.47058823529414" y="0"></rect><rect width="47.05882352941177" height="800" x="470.5882352941177" y="0"></rect><rect width="47.05882352941177" height="800" x="564.7058823529412" y="0"></rect><rect width="47.05882352941177" height="800" x="658.8235294117648" y="0"></rect><rect width="47.05882352941177" height="800" x="752.9411764705883" y="0"></rect><rect width="47.05882352941177" height="800" x="847.0588235294118" y="0"></rect><rect width="47.05882352941177" height="800" x="941.1764705882354" y="0"></rect><rect width="47.05882352941177" height="800" x="1035.294117647059" y="0"></rect><rect width="47.05882352941177" height="800" x="1129.4117647058824" y="0"></rect><rect width="47.05882352941177" height="800" x="1223.5294117647059" y="0"></rect><rect width="47.05882352941177" height="800" x="1317.6470588235295" y="0"></rect><rect width="47.05882352941177" height="800" x="1411.7647058823532" y="0"></rect><rect width="47.05882352941177" height="800" x="1505.8823529411766" y="0"></rect><rect width="47.05882352941177" height="800" x="1600" y="0"></rect></clipPath><clipPath id="SvgjsClipPath2157"><rect width="47.05882352941177" height="800" x="47.05882352941177" y="0"></rect><rect width="47.05882352941177" height="800" x="141.1764705882353" y="0"></rect><rect width="47.05882352941177" height="800" x="235.29411764705884" y="0"></rect><rect width="47.05882352941177" height="800" x="329.4117647058824" y="0"></rect><rect width="47.05882352941177" height="800" x="423.5294117647059" y="0"></rect><rect width="47.05882352941177" height="800" x="517.6470588235295" y="0"></rect><rect width="47.05882352941177" height="800" x="611.7647058823529" y="0"></rect><rect width="47.05882352941177" height="800" x="705.8823529411766" y="0"></rect><rect width="47.05882352941177" height="800" x="800" y="0"></rect><rect width="47.05882352941177" height="800" x="894.1176470588236" y="0"></rect><rect width="47.05882352941177" height="800" x="988.2352941176473" y="0"></rect><rect width="47.05882352941177" height="800" x="1082.3529411764707" y="0"></rect><rect width="47.05882352941177" height="800" x="1176.4705882352941" y="0"></rect><rect width="47.05882352941177" height="800" x="1270.5882352941178" y="0"></rect><rect width="47.05882352941177" height="800" x="1364.7058823529414" y="0"></rect><rect width="47.05882352941177" height="800" x="1458.8235294117649" y="0"></rect><rect width="47.05882352941177" height="800" x="1552.9411764705883" y="0"></rect></clipPath></defs></svg>