<svg id="visual" viewBox="0 0 900 600" width="900" height="600" xmlns="http://www.w3.org/2000/svg" xmlns:xlink="http://www.w3.org/1999/xlink" version="1.1"><path d="M0 139L9.3 132C18.7 125 37.3 111 56.2 117C75 123 94 149 112.8 167C131.7 185 150.3 195 169 182C187.7 169 206.3 133 225 131C243.7 129 262.3 161 281.2 183C300 205 319 217 337.8 206C356.7 195 375.3 161 394 147C412.7 133 431.3 139 450 146C468.7 153 487.3 161 506.2 152C525 143 544 117 562.8 123C581.7 129 600.3 167 619 180C637.7 193 656.3 181 675 186C693.7 191 712.3 213 731.2 208C750 203 769 171 787.8 169C806.7 167 825.3 195 844 199C862.7 203 881.3 183 890.7 173L900 163L900 0L890.7 0C881.3 0 862.7 0 844 0C825.3 0 806.7 0 787.8 0C769 0 750 0 731.2 0C712.3 0 693.7 0 675 0C656.3 0 637.7 0 619 0C600.3 0 581.7 0 562.8 0C544 0 525 0 506.2 0C487.3 0 468.7 0 450 0C431.3 0 412.7 0 394 0C375.3 0 356.7 0 337.8 0C319 0 300 0 281.2 0C262.3 0 243.7 0 225 0C206.3 0 187.7 0 169 0C150.3 0 131.7 0 112.8 0C94 0 75 0 56.2 0C37.3 0 18.7 0 9.3 0L0 0Z" fill="#ffb4b4"></path><path d="M0 253L9.3 245C18.7 237 37.3 221 56.2 213C75 205 94 205 112.8 219C131.7 233 150.3 261 169 257C187.7 253 206.3 217 225 217C243.7 217 262.3 253 281.2 275C300 297 319 305 337.8 290C356.7 275 375.3 237 394 222C412.7 207 431.3 215 450 224C468.7 233 487.3 243 506.2 225C525 207 544 161 562.8 167C581.7 173 600.3 231 619 244C637.7 257 656.3 225 675 226C693.7 227 712.3 261 731.2 260C750 259 769 223 787.8 218C806.7 213 825.3 239 844 251C862.7 263 881.3 261 890.7 260L900 259L900 161L890.7 171C881.3 181 862.7 201 844 197C825.3 193 806.7 165 787.8 167C769 169 750 201 731.2 206C712.3 211 693.7 189 675 184C656.3 179 637.7 191 619 178C600.3 165 581.7 127 562.8 121C544 115 525 141 506.2 150C487.3 159 468.7 151 450 144C431.3 137 412.7 131 394 145C375.3 159 356.7 193 337.8 204C319 215 300 203 281.2 181C262.3 159 243.7 127 225 129C206.3 131 187.7 167 169 180C150.3 193 131.7 183 112.8 165C94 147 75 121 56.2 115C37.3 109 18.7 123 9.3 130L0 137Z" fill="#ffa6a6"></path><path d="M0 289L9.3 280C18.7 271 37.3 253 56.2 245C75 237 94 239 112.8 254C131.7 269 150.3 297 169 297C187.7 297 206.3 269 225 271C243.7 273 262.3 305 281.2 330C300 355 319 373 337.8 359C356.7 345 375.3 299 394 278C412.7 257 431.3 261 450 278C468.7 295 487.3 325 506.2 314C525 303 544 251 562.8 246C581.7 241 600.3 283 619 296C637.7 309 656.3 293 675 300C693.7 307 712.3 337 731.2 334C750 331 769 295 787.8 285C806.7 275 825.3 291 844 295C862.7 299 881.3 291 890.7 287L900 283L900 257L890.7 258C881.3 259 862.7 261 844 249C825.3 237 806.7 211 787.8 216C769 221 750 257 731.2 258C712.3 259 693.7 225 675 224C656.3 223 637.7 255 619 242C600.3 229 581.7 171 562.8 165C544 159 525 205 506.2 223C487.3 241 468.7 231 450 222C431.3 213 412.7 205 394 220C375.3 235 356.7 273 337.8 288C319 303 300 295 281.2 273C262.3 251 243.7 215 225 215C206.3 215 187.7 251 169 255C150.3 259 131.7 231 112.8 217C94 203 75 203 56.2 211C37.3 219 18.7 235 9.3 243L0 251Z" fill="#ff9897"></path><path d="M0 445L9.3 437C18.7 429 37.3 413 56.2 398C75 383 94 369 112.8 370C131.7 371 150.3 387 169 402C187.7 417 206.3 431 225 427C243.7 423 262.3 401 281.2 405C300 409 319 439 337.8 457C356.7 475 375.3 481 394 467C412.7 453 431.3 419 450 419C468.7 419 487.3 453 506.2 452C525 451 544 415 562.8 398C581.7 381 600.3 383 619 393C637.7 403 656.3 421 675 429C693.7 437 712.3 435 731.2 426C750 417 769 401 787.8 409C806.7 417 825.3 449 844 454C862.7 459 881.3 437 890.7 426L900 415L900 281L890.7 285C881.3 289 862.7 297 844 293C825.3 289 806.7 273 787.8 283C769 293 750 329 731.2 332C712.3 335 693.7 305 675 298C656.3 291 637.7 307 619 294C600.3 281 581.7 239 562.8 244C544 249 525 301 506.2 312C487.3 323 468.7 293 450 276C431.3 259 412.7 255 394 276C375.3 297 356.7 343 337.8 357C319 371 300 353 281.2 328C262.3 303 243.7 271 225 269C206.3 267 187.7 295 169 295C150.3 295 131.7 267 112.8 252C94 237 75 235 56.2 243C37.3 251 18.7 269 9.3 278L0 287Z" fill="#ff8988"></path><path d="M0 469L9.3 465C18.7 461 37.3 453 56.2 440C75 427 94 409 112.8 406C131.7 403 150.3 415 169 434C187.7 453 206.3 479 225 479C243.7 479 262.3 453 281.2 452C300 451 319 475 337.8 490C356.7 505 375.3 511 394 501C412.7 491 431.3 465 450 465C468.7 465 487.3 491 506.2 485C525 479 544 441 562.8 426C581.7 411 600.3 419 619 434C637.7 449 656.3 471 675 479C693.7 487 712.3 481 731.2 476C750 471 769 467 787.8 473C806.7 479 825.3 495 844 493C862.7 491 881.3 471 890.7 461L900 451L900 413L890.7 424C881.3 435 862.7 457 844 452C825.3 447 806.7 415 787.8 407C769 399 750 415 731.2 424C712.3 433 693.7 435 675 427C656.3 419 637.7 401 619 391C600.3 381 581.7 379 562.8 396C544 413 525 449 506.2 450C487.3 451 468.7 417 450 417C431.3 417 412.7 451 394 465C375.3 479 356.7 473 337.8 455C319 437 300 407 281.2 403C262.3 399 243.7 421 225 425C206.3 429 187.7 415 169 400C150.3 385 131.7 369 112.8 368C94 367 75 381 56.2 396C37.3 411 18.7 427 9.3 435L0 443Z" fill="#ff7a79"></path><path d="M0 553L9.3 549C18.7 545 37.3 537 56.2 536C75 535 94 541 112.8 544C131.7 547 150.3 547 169 548C187.7 549 206.3 551 225 550C243.7 549 262.3 545 281.2 541C300 537 319 533 337.8 540C356.7 547 375.3 565 394 574C412.7 583 431.3 583 450 582C468.7 581 487.3 579 506.2 572C525 565 544 553 562.8 547C581.7 541 600.3 541 619 545C637.7 549 656.3 557 675 558C693.7 559 712.3 553 731.2 550C750 547 769 547 787.8 549C806.7 551 825.3 555 844 552C862.7 549 881.3 539 890.7 534L900 529L900 449L890.7 459C881.3 469 862.7 489 844 491C825.3 493 806.7 477 787.8 471C769 465 750 469 731.2 474C712.3 479 693.7 485 675 477C656.3 469 637.7 447 619 432C600.3 417 581.7 409 562.8 424C544 439 525 477 506.2 483C487.3 489 468.7 463 450 463C431.3 463 412.7 489 394 499C375.3 509 356.7 503 337.8 488C319 473 300 449 281.2 450C262.3 451 243.7 477 225 477C206.3 477 187.7 451 169 432C150.3 413 131.7 401 112.8 404C94 407 75 425 56.2 438C37.3 451 18.7 459 9.3 463L0 467Z" fill="#ff6b6a"></path><path d="M0 601L9.3 601C18.7 601 37.3 601 56.2 601C75 601 94 601 112.8 601C131.7 601 150.3 601 169 601C187.7 601 206.3 601 225 601C243.7 601 262.3 601 281.2 601C300 601 319 601 337.8 601C356.7 601 375.3 601 394 601C412.7 601 431.3 601 450 601C468.7 601 487.3 601 506.2 601C525 601 544 601 562.8 601C581.7 601 600.3 601 619 601C637.7 601 656.3 601 675 601C693.7 601 712.3 601 731.2 601C750 601 769 601 787.8 601C806.7 601 825.3 601 844 601C862.7 601 881.3 601 890.7 601L900 601L900 527L890.7 532C881.3 537 862.7 547 844 550C825.3 553 806.7 549 787.8 547C769 545 750 545 731.2 548C712.3 551 693.7 557 675 556C656.3 555 637.7 547 619 543C600.3 539 581.7 539 562.8 545C544 551 525 563 506.2 570C487.3 577 468.7 579 450 580C431.3 581 412.7 581 394 572C375.3 563 356.7 545 337.8 538C319 531 300 535 281.2 539C262.3 543 243.7 547 225 548C206.3 549 187.7 547 169 546C150.3 545 131.7 545 112.8 542C94 539 75 533 56.2 534C37.3 535 18.7 543 9.3 547L0 551Z" fill="#ff5a5a"></path></svg>